<svg xmlns="http://www.w3.org/2000/svg" xmlns:xlink="http://www.w3.org/1999/xlink" width="1360" height="776.43"><rect width="1360" height="776.43" rx="5" ry="5" class="a"/><svg y="0%" x="0%"><circle cx="20" cy="20" r="6" fill="#ff5f58"/><circle cx="40" cy="20" r="6" fill="#ffbd2e"/><circle cx="60" cy="20" r="6" fill="#18c132"/></svg><svg height="716.43" viewBox="0 0 132 71.643" width="1320" x="15" xmlns="http://www.w3.org/2000/svg" xmlns:xlink="http://www.w3.org/1999/xlink" y="50"><style>@keyframes k{0%{transform:translateX(0)}1.3%{transform:translateX(-132px)}5.4%{transform:translateX(-264px)}7%{transform:translateX(-396px)}8.3%{transform:translateX(-528px)}9.3%{transform:translateX(-660px)}10%{transform:translateX(-792px)}11.1%{transform:translateX(-924px)}12.8%{transform:translateX(-1056px)}15%{transform:translateX(-1188px)}16.2%{transform:translateX(-1320px)}18.6%{transform:translateX(-1452px)}25.4%{transform:translateX(-1584px)}28.9%{transform:translateX(-1716px)}33.8%{transform:translateX(-2244px)}33.9%{transform:translateX(-2772px)}47.1%{transform:translateX(-2904px)}64.5%{transform:translateX(-3036px)}82.9%{transform:translateX(-3168px)}to{transform:translateX(-3300px)}}.a{fill:#282d35}.f,.g,.h{white-space:pre}.f{fill:#a8cc8c;font-weight:700}.g,.h{fill:#b9c0cb}.h{fill:#71bef2;font-weight:700}</style><g font-family="Monaco,Consolas,Menlo,'Bitstream Vera Sans Mono','Powerline Symbols',monospace" font-size="1.67"><defs><symbol id="1"><text y="1.67" class="f">mbshe@Hal</text><text x="9.018" y="1.67" class="g">:</text><text x="10.02" y="1.67" class="h">~/Delphium</text><text x="20.04" y="1.67" class="g">$</text></symbol><symbol id="2"><text y="1.67" class="f">mbshe@Hal</text><text x="9.018" y="1.67" class="g">:</text><text x="10.02" y="1.67" class="h">~/Delphium</text><text x="20.04" y="1.67" class="g">$</text><text x="22.044" y="1.67" class="g">python</text></symbol><symbol id="3"><text y="1.67" class="f">mbshe@Hal</text><text x="9.018" y="1.67" class="g">:</text><text x="10.02" y="1.67" class="h">~/Delphium</text><text x="20.04" y="1.67" class="g">$</text><text x="22.044" y="1.67" class="g">python</text><text x="29.058" y="1.67" class="g">main.py</text></symbol><symbol id="4"><text y="1.67" class="g">📥</text><text x="3.006" y="1.67" class="g">Fetching</text><text x="12.024" y="1.67" class="g">archives...</text></symbol><symbol id="5"><text y="1.67" class="g">📥</text><text x="3.006" y="1.67" class="g">Fetching</text><text x="12.024" y="1.67" class="g">games</text><text x="18.036" y="1.67" class="g">from</text><text x="23.046" y="1.67" class="g">Chess.com</text><text x="33.066" y="1.67" class="g">API...</text></symbol><symbol id="6"><text y="1.67" class="g">✅</text><text x="2.004" y="1.67" class="g">Loaded</text><text x="9.018" y="1.67" class="g">cached</text><text x="16.032" y="1.67" class="g">game:</text><text x="22.044" y="1.67" class="g">5d8d1a5a2ee58621f8159bc96b20b10d</text></symbol><symbol id="7"><text y="1.67" class="g">✅</text><text x="2.004" y="1.67" class="g">Loaded</text><text x="9.018" y="1.67" class="g">cached</text><text x="16.032" y="1.67" class="g">game:</text><text x="22.044" y="1.67" class="g">027155f1b974ccfa0f3a747a3aafa71e</text></symbol><symbol id="8"><text y="1.67" class="g">✅</text><text x="2.004" y="1.67" class="g">Loaded</text><text x="9.018" y="1.67" class="g">cached</text><text x="16.032" y="1.67" class="g">game:</text><text x="22.044" y="1.67" class="g">4ed53fd85b8200c0a9252c3de1d3da9a✅</text><text x="56.112" y="1.67" class="g">Loaded</text><text x="63.126" y="1.67" class="g">cached</text><text x="70.14" y="1.67" class="g">game:</text><text x="76.152" y="1.67" class="g">44014041cefc5d45f81a10f0dd2bbd2b</text></symbol><symbol id="9"><text y="1.67" class="g">✅</text><text x="2.004" y="1.67" class="g">Loaded</text><text x="9.018" y="1.67" class="g">cached</text><text x="16.032" y="1.67" class="g">game:</text><text x="22.044" y="1.67" class="g">41cab33b9b955b60237e0d4a0220dcf6</text></symbol><symbol id="10"><text y="1.67" class="g">🤖</text><text x="3.006" y="1.67" class="g">Summarizing</text><text x="15.03" y="1.67" class="g">game</text><text x="20.04" y="1.67" class="g">1</text><text x="22.044" y="1.67" class="g">of</text><text x="25.05" y="1.67" class="g">5...</text></symbol><symbol id="11"><text y="1.67" class="g">✅</text><text x="2.004" y="1.67" class="g">Found</text><text x="8.016" y="1.67" class="g">cached</text><text x="15.03" y="1.67" class="g">summary</text><text x="23.046" y="1.67" class="g">for</text><text x="27.054" y="1.67" class="g">027155f1b974ccfa0f3a747a3aafa71e</text></symbol><symbol id="12"><text y="1.67" class="g">🤖</text><text x="3.006" y="1.67" class="g">Summarizing</text><text x="15.03" y="1.67" class="g">game</text><text x="20.04" y="1.67" class="g">2</text><text x="22.044" y="1.67" class="g">of</text><text x="25.05" y="1.67" class="g">5...</text></symbol><symbol id="13"><text y="1.67" class="g">✅</text><text x="2.004" y="1.67" class="g">Found</text><text x="8.016" y="1.67" class="g">cached</text><text x="15.03" y="1.67" class="g">summary</text><text x="23.046" y="1.67" class="g">for</text><text x="27.054" y="1.67" class="g">5d8d1a5a2ee58621f8159bc96b20b10d</text></symbol><symbol id="14"><text y="1.67" class="g">🤖</text><text x="3.006" y="1.67" class="g">Summarizing</text><text x="15.03" y="1.67" class="g">game</text><text x="20.04" y="1.67" class="g">3</text><text x="22.044" y="1.67" class="g">of</text><text x="25.05" y="1.67" class="g">5...</text></symbol><symbol id="15"><text y="1.67" class="g">✅</text><text x="2.004" y="1.67" class="g">Found</text><text x="8.016" y="1.67" class="g">cached</text><text x="15.03" y="1.67" class="g">summary</text><text x="23.046" y="1.67" class="g">for</text><text x="27.054" y="1.67" class="g">41cab33b9b955b60237e0d4a0220dcf6</text></symbol><symbol id="16"><text y="1.67" class="g">🤖</text><text x="3.006" y="1.67" class="g">Summarizing</text><text x="15.03" y="1.67" class="g">game</text><text x="20.04" y="1.67" class="g">4</text><text x="22.044" y="1.67" class="g">of</text><text x="25.05" y="1.67" class="g">5...</text></symbol><symbol id="17"><text y="1.67" class="g">1.</text><text x="3.006" y="1.67" class="g">**Pawn</text><text x="10.02" y="1.67" class="g">Structure</text><text x="20.04" y="1.67" class="g">Awareness**:</text><text x="33.066" y="1.67" class="g">Engage</text><text x="40.08" y="1.67" class="g">in</text><text x="43.086" y="1.67" class="g">drills</text><text x="50.1" y="1.67" class="g">that</text><text x="55.11" y="1.67" class="g">help</text><text x="60.12" y="1.67" class="g">recognize</text><text x="70.14" y="1.67" class="g">and</text><text x="74.148" y="1.67" class="g">avoid</text><text x="80.16" y="1.67" class="g">weakening</text><text x="90.18" y="1.67" class="g">pawn</text><text x="95.19" y="1.67" class="g">structures.</text><text x="107.214" y="1.67" class="g">&quot;Pawn</text><text x="113.226" y="1.67" class="g">Structure</text><text x="123.246" y="1.67" class="g">Chess&quot;</text><text x="130.26" y="1.67" class="g">by</text></symbol><symbol id="18"><text x="1.002" y="1.67" class="g">Andrew</text><text x="8.016" y="1.67" class="g">Soltis</text><text x="15.03" y="1.67" class="g">can</text><text x="19.038" y="1.67" class="g">be</text><text x="22.044" y="1.67" class="g">a</text><text x="24.048" y="1.67" class="g">helpful</text><text x="32.064" y="1.67" class="g">resource.</text></symbol><symbol id="19"><text y="1.67" class="g">2.</text><text x="3.006" y="1.67" class="g">**Piece</text><text x="11.022" y="1.67" class="g">Placement</text><text x="21.042" y="1.67" class="g">and</text><text x="25.05" y="1.67" class="g">Coordination**:</text><text x="41.082" y="1.67" class="g">Practice</text><text x="50.1" y="1.67" class="g">exercises</text><text x="60.12" y="1.67" class="g">focused</text><text x="68.136" y="1.67" class="g">on</text><text x="71.142" y="1.67" class="g">optimizing</text><text x="82.164" y="1.67" class="g">piece</text><text x="88.176" y="1.67" class="g">placement</text><text x="98.196" y="1.67" class="g">and</text><text x="102.204" y="1.67" class="g">coordination,</text><text x="116.232" y="1.67" class="g">possibly</text><text x="125.25" y="1.67" class="g">using</text><text x="131.262" y="1.67" class="g">a</text></symbol><symbol id="20"><text x="1.002" y="1.67" class="g">tactics</text><text x="9.018" y="1.67" class="g">trainer</text><text x="17.034" y="1.67" class="g">that</text><text x="22.044" y="1.67" class="g">highlights</text><text x="33.066" y="1.67" class="g">piece</text><text x="39.078" y="1.67" class="g">harmony.</text></symbol><symbol id="21"><text y="1.67" class="g">3.</text><text x="3.006" y="1.67" class="g">**Tactical</text><text x="14.028" y="1.67" class="g">Vision</text><text x="21.042" y="1.67" class="g">Improvement**:</text><text x="36.072" y="1.67" class="g">Use</text><text x="40.08" y="1.67" class="g">tactical</text><text x="49.098" y="1.67" class="g">puzzles</text><text x="57.114" y="1.67" class="g">specifically</text><text x="70.14" y="1.67" class="g">targeting</text><text x="80.16" y="1.67" class="g">blunder</text><text x="88.176" y="1.67" class="g">prevention</text><text x="99.198" y="1.67" class="g">and</text><text x="103.206" y="1.67" class="g">threat</text><text x="110.22" y="1.67" class="g">identification</text><text x="125.25" y="1.67" class="g">to</text><text x="128.256" y="1.67" class="g">redu</text></symbol><symbol id="22"><text y="1.67" class="g">ce</text><text x="3.006" y="1.67" class="g">oversight</text><text x="13.026" y="1.67" class="g">of</text><text x="16.032" y="1.67" class="g">opponent&apos;s</text><text x="27.054" y="1.67" class="g">tactical</text><text x="36.072" y="1.67" class="g">threats.</text></symbol><symbol id="23"><text y="1.67" class="g">##</text><text x="3.006" y="1.67" class="g">🏋️</text><text x="7.014" y="1.67" class="g">Training</text><text x="16.032" y="1.67" class="g">Plan</text><text x="21.042" y="1.67" class="g">(Next</text><text x="27.054" y="1.67" class="g">2</text><text x="29.058" y="1.67" class="g">Weeks)</text></symbol><symbol id="24"><text y="1.67" class="g">-</text><text x="2.004" y="1.67" class="g">**Monday**:</text><text x="14.028" y="1.67" class="g">Tactical</text><text x="23.046" y="1.67" class="g">Drills</text><text x="30.06" y="1.67" class="g">(30</text><text x="34.068" y="1.67" class="g">minutes)</text></symbol><symbol id="25"><text x="2.004" y="1.67" class="g">-</text><text x="4.008" y="1.67" class="g">Focus</text><text x="10.02" y="1.67" class="g">on</text><text x="13.026" y="1.67" class="g">exercises</text><text x="23.046" y="1.67" class="g">that</text><text x="28.056" y="1.67" class="g">highlight</text><text x="38.076" y="1.67" class="g">tactical</text><text x="47.094" y="1.67" class="g">themes</text><text x="54.108" y="1.67" class="g">like</text><text x="59.118" y="1.67" class="g">forks,</text><text x="66.132" y="1.67" class="g">pins,</text><text x="72.144" y="1.67" class="g">and</text><text x="76.152" y="1.67" class="g">discovered</text><text x="87.174" y="1.67" class="g">attacks.</text></symbol><symbol id="26"><text y="1.67" class="g">-</text><text x="2.004" y="1.67" class="g">**Tuesday**:</text><text x="15.03" y="1.67" class="g">Slow</text><text x="20.04" y="1.67" class="g">Game</text><text x="25.05" y="1.67" class="g">Analysis</text><text x="34.068" y="1.67" class="g">(1</text><text x="37.074" y="1.67" class="g">hour)</text></symbol><symbol id="27"><text x="2.004" y="1.67" class="g">-</text><text x="4.008" y="1.67" class="g">Play</text><text x="9.018" y="1.67" class="g">a</text><text x="11.022" y="1.67" class="g">slow</text><text x="16.032" y="1.67" class="g">game</text><text x="21.042" y="1.67" class="g">and</text><text x="25.05" y="1.67" class="g">analyze</text><text x="33.066" y="1.67" class="g">it</text><text x="36.072" y="1.67" class="g">afterward,</text><text x="47.094" y="1.67" class="g">focusing</text><text x="56.112" y="1.67" class="g">on</text><text x="59.118" y="1.67" class="g">pawn</text><text x="64.128" y="1.67" class="g">structure</text><text x="74.148" y="1.67" class="g">and</text><text x="78.156" y="1.67" class="g">piece</text><text x="84.168" y="1.67" class="g">placement.</text></symbol><symbol id="28"><text y="1.67" class="g">-</text><text x="2.004" y="1.67" class="g">**Wednesday**:</text><text x="17.034" y="1.67" class="g">Opening</text><text x="25.05" y="1.67" class="g">Study</text><text x="31.062" y="1.67" class="g">(30</text><text x="35.07" y="1.67" class="g">minutes)</text></symbol><symbol id="29"><text x="2.004" y="1.67" class="g">-</text><text x="4.008" y="1.67" class="g">Study</text><text x="10.02" y="1.67" class="g">one</text><text x="14.028" y="1.67" class="g">line</text><text x="19.038" y="1.67" class="g">in</text><text x="22.044" y="1.67" class="g">the</text><text x="26.052" y="1.67" class="g">Queen&apos;s</text><text x="34.068" y="1.67" class="g">Gambit</text><text x="41.082" y="1.67" class="g">Declined,</text><text x="51.102" y="1.67" class="g">emphasizing</text><text x="63.126" y="1.67" class="g">key</text><text x="67.134" y="1.67" class="g">pawn</text><text x="72.144" y="1.67" class="g">breaks</text><text x="79.158" y="1.67" class="g">and</text><text x="83.166" y="1.67" class="g">typical</text><text x="91.182" y="1.67" class="g">middle</text><text x="98.196" y="1.67" class="g">game</text><text x="103.206" y="1.67" class="g">plans.</text></symbol><symbol id="30"><text y="1.67" class="g">-</text><text x="2.004" y="1.67" class="g">**Thursday**:</text><text x="16.032" y="1.67" class="g">Self-Review</text><text x="28.056" y="1.67" class="g">(1</text><text x="31.062" y="1.67" class="g">hour)</text></symbol><symbol id="31"><text x="2.004" y="1.67" class="g">-</text><text x="4.008" y="1.67" class="g">Review</text><text x="11.022" y="1.67" class="g">recent</text><text x="18.036" y="1.67" class="g">games,</text><text x="25.05" y="1.67" class="g">focusing</text><text x="34.068" y="1.67" class="g">on</text><text x="37.074" y="1.67" class="g">recurring</text><text x="47.094" y="1.67" class="g">mistake</text><text x="55.11" y="1.67" class="g">types</text><text x="61.122" y="1.67" class="g">and</text><text x="65.13" y="1.67" class="g">strategic</text><text x="75.15" y="1.67" class="g">improvements.</text></symbol><symbol id="32"><text y="1.67" class="g">-</text><text x="2.004" y="1.67" class="g">**Friday**:</text><text x="14.028" y="1.67" class="g">Tactical</text><text x="23.046" y="1.67" class="g">Drills</text><text x="30.06" y="1.67" class="g">(30</text><text x="34.068" y="1.67" class="g">minutes)</text></symbol><symbol id="33"><text x="2.004" y="1.67" class="g">-</text><text x="4.008" y="1.67" class="g">Engage</text><text x="11.022" y="1.67" class="g">in</text><text x="14.028" y="1.67" class="g">puzzles</text><text x="22.044" y="1.67" class="g">that</text><text x="27.054" y="1.67" class="g">focus</text><text x="33.066" y="1.67" class="g">on</text><text x="36.072" y="1.67" class="g">recognizing</text><text x="48.096" y="1.67" class="g">and</text><text x="52.104" y="1.67" class="g">countering</text><text x="63.126" y="1.67" class="g">opponent</text><text x="72.144" y="1.67" class="g">threats.</text></symbol><symbol id="34"><text y="1.67" class="g">-</text><text x="2.004" y="1.67" class="g">**Saturday**:</text><text x="16.032" y="1.67" class="g">Rest</text><text x="21.042" y="1.67" class="g">and</text><text x="25.05" y="1.67" class="g">Reflection</text></symbol><symbol id="35"><text x="2.004" y="1.67" class="g">-</text><text x="4.008" y="1.67" class="g">Take</text><text x="9.018" y="1.67" class="g">a</text><text x="11.022" y="1.67" class="g">break</text><text x="17.034" y="1.67" class="g">from</text><text x="22.044" y="1.67" class="g">active</text><text x="29.058" y="1.67" class="g">play</text><text x="34.068" y="1.67" class="g">and</text><text x="38.076" y="1.67" class="g">review</text><text x="45.09" y="1.67" class="g">notable</text><text x="53.106" y="1.67" class="g">games</text><text x="59.118" y="1.67" class="g">by</text><text x="62.124" y="1.67" class="g">grandmasters,</text><text x="76.152" y="1.67" class="g">focusing</text><text x="85.17" y="1.67" class="g">on</text><text x="88.176" y="1.67" class="g">pawn</text><text x="93.186" y="1.67" class="g">structure</text><text x="103.206" y="1.67" class="g">management.</text></symbol><symbol id="36"><text y="1.67" class="g">-</text><text x="2.004" y="1.67" class="g">**Sunday**:</text><text x="14.028" y="1.67" class="g">Test</text><text x="19.038" y="1.67" class="g">Scenario</text></symbol><symbol id="37"><text x="2.004" y="1.67" class="g">-</text><text x="4.008" y="1.67" class="g">Play</text><text x="9.018" y="1.67" class="g">a</text><text x="11.022" y="1.67" class="g">blitz</text><text x="17.034" y="1.67" class="g">game</text><text x="22.044" y="1.67" class="g">or</text><text x="25.05" y="1.67" class="g">participate</text><text x="37.074" y="1.67" class="g">in</text><text x="40.08" y="1.67" class="g">a</text><text x="42.084" y="1.67" class="g">local</text><text x="48.096" y="1.67" class="g">club</text><text x="53.106" y="1.67" class="g">match</text><text x="59.118" y="1.67" class="g">to</text><text x="62.124" y="1.67" class="g">apply</text><text x="68.136" y="1.67" class="g">learned</text><text x="76.152" y="1.67" class="g">concepts</text><text x="85.17" y="1.67" class="g">under</text><text x="91.182" y="1.67" class="g">pressure.</text></symbol><symbol id="a"><path fill="transparent" d="M0 0h132v33H0z"/></symbol><symbol id="b"><path fill="#6f7683" d="M0 0h1.102v2.171H0z"/></symbol></defs><path class="a" d="M0 0h132v71.643H0z"/><g style="animation-duration:11.476969s;animation-iteration-count:infinite;animation-name:k;animation-timing-function:steps(1,end)"><svg width="3432"><svg><use xlink:href="#a"/><use xlink:href="#b" x="-.004"/></svg><svg x="132"><use xlink:href="#a"/><use xlink:href="#b" x="21.996"/><use xlink:href="#1"/></svg><svg x="264"><use xlink:href="#a"/><use xlink:href="#b" x="22.996"/><text y="1.67" class="f">mbshe@Hal</text><text x="9.018" y="1.67" class="g">:</text><text x="10.02" y="1.67" class="h">~/Delphium</text><text x="20.04" y="1.67" class="g">$</text><text x="22.044" y="1.67" class="g">p</text></svg><svg x="396"><use xlink:href="#a"/><use xlink:href="#b" x="23.996"/><text y="1.67" class="f">mbshe@Hal</text><text x="9.018" y="1.67" class="g">:</text><text x="10.02" y="1.67" class="h">~/Delphium</text><text x="20.04" y="1.67" class="g">$</text><text x="22.044" y="1.67" class="g">py</text></svg><svg x="528"><use xlink:href="#a"/><use xlink:href="#b" x="24.996"/><text y="1.67" class="f">mbshe@Hal</text><text x="9.018" y="1.67" class="g">:</text><text x="10.02" y="1.67" class="h">~/Delphium</text><text x="20.04" y="1.67" class="g">$</text><text x="22.044" y="1.67" class="g">pyt</text></svg><svg x="660"><use xlink:href="#a"/><use xlink:href="#b" x="25.996"/><text y="1.67" class="f">mbshe@Hal</text><text x="9.018" y="1.67" class="g">:</text><text x="10.02" y="1.67" class="h">~/Delphium</text><text x="20.04" y="1.67" class="g">$</text><text x="22.044" y="1.67" class="g">pyth</text></svg><svg x="792"><use xlink:href="#a"/><use xlink:href="#b" x="26.996"/><text y="1.67" class="f">mbshe@Hal</text><text x="9.018" y="1.67" class="g">:</text><text x="10.02" y="1.67" class="h">~/Delphium</text><text x="20.04" y="1.67" class="g">$</text><text x="22.044" y="1.67" class="g">pytho</text></svg><svg x="924"><use xlink:href="#a"/><use xlink:href="#b" x="27.996"/><use xlink:href="#2"/></svg><svg x="1056"><use xlink:href="#a"/><use xlink:href="#b" x="28.996"/><use xlink:href="#2"/></svg><svg x="1188"><use xlink:href="#a"/><use xlink:href="#b" x="29.996"/><text y="1.67" class="f">mbshe@Hal</text><text x="9.018" y="1.67" class="g">:</text><text x="10.02" y="1.67" class="h">~/Delphium</text><text x="20.04" y="1.67" class="g">$</text><text x="22.044" y="1.67" class="g">python</text><text x="29.058" y="1.67" class="g">m</text></svg><svg x="1320"><use xlink:href="#a"/><use xlink:href="#b" x="30.996"/><text y="1.67" class="f">mbshe@Hal</text><text x="9.018" y="1.67" class="g">:</text><text x="10.02" y="1.67" class="h">~/Delphium</text><text x="20.04" y="1.67" class="g">$</text><text x="22.044" y="1.67" class="g">python</text><text x="29.058" y="1.67" class="g">ma</text></svg><svg x="1452"><use xlink:href="#a"/><use xlink:href="#b" x="36.996"/><use xlink:href="#3"/></svg><svg x="1584"><use xlink:href="#a"/><use xlink:href="#b" x="-.004" y="2.146"/><use xlink:href="#3"/></svg><svg x="1716"><use xlink:href="#a"/><use xlink:href="#b" x="-.004" y="6.488"/><use xlink:href="#3"/><use xlink:href="#4" y="2.171"/><use xlink:href="#5" y="4.342"/></svg><svg x="1848"><use xlink:href="#a"/><use xlink:href="#b" x="-.004" y="8.659"/><use xlink:href="#3"/><use xlink:href="#4" y="2.171"/><use xlink:href="#5" y="4.342"/><use xlink:href="#6" y="6.513"/></svg><svg x="1980"><use xlink:href="#a"/><use xlink:href="#b" x="-.004" y="10.83"/><use xlink:href="#3"/><use xlink:href="#4" y="2.171"/><use xlink:href="#5" y="4.342"/><use xlink:href="#6" y="6.513"/><use xlink:href="#7" y="8.684"/></svg><svg x="2112"><use xlink:href="#a"/><use xlink:href="#b" x="53.996" y="10.83"/><use xlink:href="#3"/><use xlink:href="#4" y="2.171"/><use xlink:href="#5" y="4.342"/><use xlink:href="#6" y="6.513"/><use xlink:href="#7" y="8.684"/><text y="12.525" class="g">✅</text><text x="2.004" y="12.525" class="g">Loaded</text><text x="9.018" y="12.525" class="g">cached</text><text x="16.032" y="12.525" class="g">game:</text><text x="22.044" y="12.525" class="g">4ed53fd85b8200c0a9252c3de1d3da9a</text></svg><svg x="2244"><use xlink:href="#a"/><use xlink:href="#b" x="-.004" y="13.001"/><use xlink:href="#3"/><use xlink:href="#4" y="2.171"/><use xlink:href="#5" y="4.342"/><use xlink:href="#6" y="6.513"/><use xlink:href="#7" y="8.684"/><use xlink:href="#8" y="10.855"/></svg><svg x="2376"><use xlink:href="#a"/><use xlink:href="#b" x="-.004" y="17.343"/><use xlink:href="#3"/><use xlink:href="#4" y="2.171"/><use xlink:href="#5" y="4.342"/><use xlink:href="#6" y="6.513"/><use xlink:href="#7" y="8.684"/><use xlink:href="#8" y="10.855"/><use xlink:href="#9" y="13.026"/></svg><svg x="2508"><use xlink:href="#a"/><use xlink:href="#b" x="-.004" y="19.514"/><use xlink:href="#3"/><use xlink:href="#4" y="2.171"/><use xlink:href="#5" y="4.342"/><use xlink:href="#6" y="6.513"/><use xlink:href="#7" y="8.684"/><use xlink:href="#8" y="10.855"/><use xlink:href="#9" y="13.026"/><use xlink:href="#10" y="17.368"/></svg><svg x="2640"><use xlink:href="#a"/><use xlink:href="#b" x="-.004" y="32.54"/><use xlink:href="#3"/><use xlink:href="#4" y="2.171"/><use xlink:href="#5" y="4.342"/><use xlink:href="#6" y="6.513"/><use xlink:href="#7" y="8.684"/><use xlink:href="#8" y="10.855"/><use xlink:href="#9" y="13.026"/><use xlink:href="#10" y="17.368"/><use xlink:href="#11" y="19.539"/><use xlink:href="#12" y="21.71"/><use xlink:href="#13" y="23.881"/><use xlink:href="#14" y="26.052"/><use xlink:href="#15" y="28.223"/><use xlink:href="#16" y="30.394"/></svg><svg x="2772"><use xlink:href="#a"/><use xlink:href="#b" x="-.004" y="43.395"/><use xlink:href="#3"/><use xlink:href="#4" y="2.171"/><use xlink:href="#5" y="4.342"/><use xlink:href="#6" y="6.513"/><use xlink:href="#7" y="8.684"/><use xlink:href="#8" y="10.855"/><use xlink:href="#9" y="13.026"/><use xlink:href="#10" y="17.368"/><use xlink:href="#11" y="19.539"/><use xlink:href="#12" y="21.71"/><use xlink:href="#13" y="23.881"/><use xlink:href="#14" y="26.052"/><use xlink:href="#15" y="28.223"/><use xlink:href="#16" y="30.394"/><text y="34.235" class="g">✅</text><text x="2.004" y="34.235" class="g">Found</text><text x="8.016" y="34.235" class="g">cached</text><text x="15.03" y="34.235" class="g">summary</text><text x="23.046" y="34.235" class="g">for</text><text x="27.054" y="34.235" class="g">44014041cefc5d45f81a10f0dd2bbd2b</text><text y="36.406" class="g">🤖</text><text x="3.006" y="36.406" class="g">Summarizing</text><text x="15.03" y="36.406" class="g">game</text><text x="20.04" y="36.406" class="g">5</text><text x="22.044" y="36.406" class="g">of</text><text x="25.05" y="36.406" class="g">5...</text><text y="38.577" class="g">✅</text><text x="2.004" y="38.577" class="g">Found</text><text x="8.016" y="38.577" class="g">cached</text><text x="15.03" y="38.577" class="g">summary</text><text x="23.046" y="38.577" class="g">for</text><text x="27.054" y="38.577" class="g">4ed53fd85b8200c0a9252c3de1d3da9a</text><text y="42.919" class="g">🧠</text><text x="3.006" y="42.919" class="g">Global</text><text x="10.02" y="42.919" class="g">Summary</text><text x="18.036" y="42.919" class="g">from</text><text x="23.046" y="42.919" class="g">GPT-4o:</text></svg><svg x="2904"><use xlink:href="#a"/><use xlink:href="#b" x="10.996" y="69.447"/><text y="1.67" class="g">.</text><text y="6.012" class="g">###</text><text x="4.008" y="6.012" class="g">Recommended</text><text x="16.032" y="6.012" class="g">Lines</text><text y="10.354" class="g">-</text><text x="2.004" y="10.354" class="g">For</text><text x="6.012" y="10.354" class="g">the</text><text x="10.02" y="10.354" class="g">**Queen&apos;s</text><text x="20.04" y="10.354" class="g">Gambit</text><text x="27.054" y="10.354" class="g">Declined**,</text><text x="39.078" y="10.354" class="g">focus</text><text x="45.09" y="10.354" class="g">on</text><text x="48.096" y="10.354" class="g">understanding</text><text x="62.124" y="10.354" class="g">typical</text><text x="70.14" y="10.354" class="g">pawn</text><text x="75.15" y="10.354" class="g">breaks</text><text x="82.164" y="10.354" class="g">and</text><text x="86.172" y="10.354" class="g">the</text><text x="90.18" y="10.354" class="g">importance</text><text x="101.202" y="10.354" class="g">of</text><text x="104.208" y="10.354" class="g">maintaining</text><text x="116.232" y="10.354" class="g">a</text><text x="118.236" y="10.354" class="g">strong</text><text x="125.25" y="10.354" class="g">central</text><text x="1.002" y="12.525" class="g">presence.</text><text y="16.867" class="g">-</text><text x="2.004" y="16.867" class="g">In</text><text x="5.01" y="16.867" class="g">the</text><text x="9.018" y="16.867" class="g">**Caro-Kann</text><text x="21.042" y="16.867" class="g">Defense**,</text><text x="32.064" y="16.867" class="g">practice</text><text x="41.082" y="16.867" class="g">typical</text><text x="49.098" y="16.867" class="g">pawn</text><text x="54.108" y="16.867" class="g">structures</text><text x="65.13" y="16.867" class="g">and</text><text x="69.138" y="16.867" class="g">learn</text><text x="75.15" y="16.867" class="g">how</text><text x="79.158" y="16.867" class="g">to</text><text x="82.164" y="16.867" class="g">effectively</text><text x="94.188" y="16.867" class="g">counter</text><text x="102.204" y="16.867" class="g">White&apos;s</text><text x="110.22" y="16.867" class="g">central</text><text x="118.236" y="16.867" class="g">expansion.</text><text y="21.209" class="g">##</text><text x="3.006" y="21.209" class="g">🛠️</text><text x="7.014" y="21.209" class="g">Recommendations</text><use xlink:href="#17" y="23.881"/><use xlink:href="#18" y="26.052"/><use xlink:href="#19" y="30.394"/><use xlink:href="#20" y="32.565"/><use xlink:href="#21" y="36.907"/><use xlink:href="#22" y="39.078"/><use xlink:href="#23" y="43.42"/><use xlink:href="#24" y="47.762"/><use xlink:href="#25" y="49.933"/><use xlink:href="#26" y="54.275"/><use xlink:href="#27" y="56.446"/><use xlink:href="#28" y="60.788"/><use xlink:href="#29" y="62.959"/><use xlink:href="#30" y="67.301"/><text x="2.004" y="71.142" class="g">-</text><text x="4.008" y="71.142" class="g">Review</text></svg><svg x="3036"><use xlink:href="#a"/><use xlink:href="#b" x="-.004" y="69.447"/><use xlink:href="#17" y="2.171"/><use xlink:href="#18" y="4.342"/><use xlink:href="#19" y="8.684"/><use xlink:href="#20" y="10.855"/><use xlink:href="#21" y="15.197"/><use xlink:href="#22" y="17.368"/><use xlink:href="#23" y="21.71"/><use xlink:href="#24" y="26.052"/><use xlink:href="#25" y="28.223"/><use xlink:href="#26" y="32.565"/><use xlink:href="#27" y="34.736"/><use xlink:href="#28" y="39.078"/><use xlink:href="#29" y="41.249"/><use xlink:href="#30" y="45.591"/><use xlink:href="#31" y="47.762"/><use xlink:href="#32" y="52.104"/><use xlink:href="#33" y="54.275"/><use xlink:href="#34" y="58.617"/><use xlink:href="#35" y="60.788"/><use xlink:href="#36" y="65.13"/><use xlink:href="#37" y="67.301"/></svg><svg x="3168"><use xlink:href="#a"/><use xlink:href="#b" x="21.996" y="69.447"/><use xlink:href="#17" y="2.171"/><use xlink:href="#18" y="4.342"/><use xlink:href="#19" y="8.684"/><use xlink:href="#20" y="10.855"/><use xlink:href="#21" y="15.197"/><use xlink:href="#22" y="17.368"/><use xlink:href="#23" y="21.71"/><use xlink:href="#24" y="26.052"/><use xlink:href="#25" y="28.223"/><use xlink:href="#26" y="32.565"/><use xlink:href="#27" y="34.736"/><use xlink:href="#28" y="39.078"/><use xlink:href="#29" y="41.249"/><use xlink:href="#30" y="45.591"/><use xlink:href="#31" y="47.762"/><use xlink:href="#32" y="52.104"/><use xlink:href="#33" y="54.275"/><use xlink:href="#34" y="58.617"/><use xlink:href="#35" y="60.788"/><use xlink:href="#36" y="65.13"/><use xlink:href="#37" y="67.301"/><use xlink:href="#1" y="69.472"/></svg><svg x="3300"><use xlink:href="#a"/><use xlink:href="#b" x="-.004" y="69.447"/><use xlink:href="#18"/><use xlink:href="#19" y="4.342"/><use xlink:href="#20" y="6.513"/><use xlink:href="#21" y="10.855"/><use xlink:href="#22" y="13.026"/><use xlink:href="#23" y="17.368"/><use xlink:href="#24" y="21.71"/><use xlink:href="#25" y="23.881"/><use xlink:href="#26" y="28.223"/><use xlink:href="#27" y="30.394"/><use xlink:href="#28" y="34.736"/><use xlink:href="#29" y="36.907"/><use xlink:href="#30" y="41.249"/><use xlink:href="#31" y="43.42"/><use xlink:href="#32" y="47.762"/><use xlink:href="#33" y="49.933"/><use xlink:href="#34" y="54.275"/><use xlink:href="#35" y="56.446"/><use xlink:href="#36" y="60.788"/><use xlink:href="#37" y="62.959"/><use xlink:href="#1" y="65.13"/><text y="68.971" class="g">exit</text></svg></svg></g></g></svg></svg>